<svg version="1.1" xmlns="http://www.w3.org/2000/svg" xmlns:xlink="http://www.w3.org/1999/xlink" x="0px" y="0px" viewBox="0 0 590.4 201.6" enable-background="new 0 0 590.4 201.6" xml:space="preserve">
<g id="logo-wordmark">
<g>
<path fill="#FFFFFF" d="M387.3,187.1c0,7.6-5.7,12.9-13.1,12.9c-7.7,0-13.6-6-13.6-13.9c0-7.9,5.9-13.8,13.6-13.8
			c6,0,11.5,4.1,12.5,8.9h-5.1c-1-2.7-4.2-4.5-7.4-4.5c-5.1,0-8.9,4.1-8.9,9.4c0,5.4,3.8,9.5,9.2,9.5c4.2,0,7.5-2.8,8.2-6.7h-8.4
			v-4.3h12.8C387.3,185.2,387.3,186.2,387.3,187.1z"></path>
<path fill="#FFFFFF" d="M409.6,199.6l-6.7-10.8h-4v10.8h-4.5v-26.9h10.1c4.5,0,8.3,3.5,8.3,8c0,3.7-2,6.5-5.1,7.6l7.4,11.3H409.6z
			 M399,184.5h5.5c2.2,0,3.9-1.6,3.9-3.8c0-2.1-1.7-3.7-3.9-3.7H399V184.5z"></path>
<path fill="#FFFFFF" d="M446.1,186.1c0,7.9-5.9,13.9-13.7,13.9s-13.7-6-13.7-13.9c0-7.9,5.9-13.8,13.7-13.8
			S446.1,178.2,446.1,186.1z M423.4,186.1c0,5.4,3.9,9.5,9,9.5c5.1,0,9-4.1,9-9.5c0-5.4-3.9-9.4-9-9.4
			C427.3,176.7,423.4,180.7,423.4,186.1z"></path>
<path fill="#FFFFFF" d="M452.6,189.3v-16.7h4.5v16.7c0,3.6,2.6,6.3,6,6.3c3.4,0,6-2.7,6-6.3v-16.7h4.5v16.7
			c0,6.1-4.5,10.6-10.5,10.6S452.6,195.4,452.6,189.3z"></path>
<path fill="#FFFFFF" d="M499.5,180.9c0,4.8-3.7,8.3-8.6,8.3h-5.8v10.4h-4.5v-26.9h10.3C495.8,172.7,499.5,176.2,499.5,180.9z
			 M494.9,180.9c0-2.2-1.7-3.9-4.1-3.9h-5.8v7.9h5.8C493.2,184.9,494.9,183.2,494.9,180.9z"></path>
<path fill="#FFFFFF" d="M521.2,172.7v26.9h-4.5v-26.9H521.2z"></path>
<path fill="#FFFFFF" d="M532.2,172.7l12.7,18.2v-18.2h4.5v26.9h-3.9l-12.8-18.2v18.2h-4.5v-26.9H532.2z"></path>
<path fill="#FFFFFF" d="M555.6,186.1c0-7.9,5.9-13.8,13.6-13.8c6.2,0,11.7,4,12.5,9.5h-5c-0.9-3-3.9-5.2-7.5-5.2
			c-5,0-8.9,4.1-8.9,9.4c0,5.4,3.8,9.5,8.9,9.5c3.7,0,6.8-2.2,7.6-5.5h5c-1.1,5.9-6.2,9.9-12.6,9.9C561.5,200,555.6,194,555.6,186.1
			z"></path>
<path fill="#FFFFFF" d="M584.1,197.1c0-1.7,1.3-2.9,3-2.9c1.7,0,3,1.3,3,2.9c0,1.6-1.3,2.9-3,2.9
			C585.4,200,584.1,198.7,584.1,197.1z"></path>
</g>
<path fill="#00B1DA" d="M482.1,55.6L482.1,55.6l105.7,0c1.2,0,2.3-1,2.3-2.2V3.9c0-1.2-1-2.3-2.3-2.2l-105.7,0
		c-33.2,0-61.2,22.5-69.5,53.1v0c0,0.1-0.1,0.2-0.3,0.2s-0.2-0.1-0.3-0.2v0c-8.3-30.6-36.3-53-69.5-53.1l-125,0
		c-0.6,0-1.2,0.2-1.6,0.7L146.2,72c-0.9,0.9-2.3,0.9-3.2,0L73.3,2.3c-0.4-0.4-1-0.7-1.6-0.7H3.3c-1,0-1.5,1.2-0.8,1.9L143,144
		c0.9,0.9,2.3,0.9,3.2,0l87.8-87.8c0.4-0.4,1-0.7,1.6-0.7l107,0h0.1c9.9,0,18,8.1,18,18c0,9.9-8.1,18-18,18h-0.1
		c-2.3,0-90.4,0-105.7,0c-1.2,0-2.2,1-2.2,2.2v103.5c0,1.2,1,2.2,2.2,2.2h49.5c1.2,0,2.2-1,2.2-2.2v-49.5c0-1.2,1-2.2,2.2-2.2
		l51.7,0c33.2,0,61.2-22.5,69.5-53.1v0c0-0.1,0.1-0.2,0.3-0.2c0.1,0,0.2,0.1,0.3,0.2v0c8.3,30.6,36.3,53,69.5,53.1l105.7,0
		c1.2,0,2.3-1,2.3-2.2V93.9c0-1.2-1-2.3-2.2-2.2c-15.3,0-103.4,0-105.7,0h-0.1c-9.9,0-18-8.1-18-18
		C464.1,63.7,472.1,55.6,482.1,55.6z"></path>
</g>
<g id="guides" display="none">
<line display="inline" fill="none" stroke="#EC008C" stroke-width="6.250000e-02" stroke-miterlimit="10" x1="0.6" y1="253.6" x2="0.6" y2="-52.4"></line>
<line display="inline" fill="none" stroke="#EC008C" stroke-width="6.250000e-02" stroke-miterlimit="10" x1="18.6" y1="253.6" x2="18.6" y2="-52.4"></line>
<line display="inline" fill="none" stroke="#EC008C" stroke-width="6.250000e-02" stroke-miterlimit="10" x1="36.6" y1="253.6" x2="36.6" y2="-52.4"></line>
<line display="inline" fill="none" stroke="#EC008C" stroke-width="6.250000e-02" stroke-miterlimit="10" x1="54.6" y1="253.6" x2="54.6" y2="-52.4"></line>
<line display="inline" fill="none" stroke="#EC008C" stroke-width="6.250000e-02" stroke-miterlimit="10" x1="72.6" y1="253.6" x2="72.6" y2="-52.4"></line>
<line display="inline" fill="none" stroke="#EC008C" stroke-width="6.250000e-02" stroke-miterlimit="10" x1="90.6" y1="253.6" x2="90.6" y2="-52.4"></line>
<line display="inline" fill="none" stroke="#EC008C" stroke-width="6.250000e-02" stroke-miterlimit="10" x1="108.6" y1="253.6" x2="108.6" y2="-52.4"></line>
<line display="inline" fill="none" stroke="#EC008C" stroke-width="6.250000e-02" stroke-miterlimit="10" x1="126.6" y1="253.6" x2="126.6" y2="-52.4"></line>
<line display="inline" fill="none" stroke="#EC008C" stroke-width="6.250000e-02" stroke-miterlimit="10" x1="144.6" y1="253.6" x2="144.6" y2="-52.4"></line>
<line display="inline" fill="none" stroke="#EC008C" stroke-width="6.250000e-02" stroke-miterlimit="10" x1="162.6" y1="253.6" x2="162.6" y2="-52.4"></line>
<line display="inline" fill="none" stroke="#EC008C" stroke-width="6.250000e-02" stroke-miterlimit="10" x1="180.6" y1="253.6" x2="180.6" y2="-52.4"></line>
<line display="inline" fill="none" stroke="#EC008C" stroke-width="6.250000e-02" stroke-miterlimit="10" x1="198.6" y1="253.6" x2="198.6" y2="-52.4"></line>
<line display="inline" fill="none" stroke="#EC008C" stroke-width="6.250000e-02" stroke-miterlimit="10" x1="216.6" y1="253.6" x2="216.6" y2="-52.4"></line>
<line display="inline" fill="none" stroke="#EC008C" stroke-width="6.250000e-02" stroke-miterlimit="10" x1="234.6" y1="253.6" x2="234.6" y2="-52.4"></line>
<line display="inline" fill="none" stroke="#EC008C" stroke-width="6.250000e-02" stroke-miterlimit="10" x1="252.6" y1="253.6" x2="252.6" y2="-52.4"></line>
<line display="inline" fill="none" stroke="#EC008C" stroke-width="6.250000e-02" stroke-miterlimit="10" x1="270.6" y1="253.6" x2="270.6" y2="-52.4"></line>
<line display="inline" fill="none" stroke="#EC008C" stroke-width="6.250000e-02" stroke-miterlimit="10" x1="288.6" y1="253.6" x2="288.6" y2="-52.4"></line>
<line display="inline" fill="none" stroke="#EC008C" stroke-width="6.250000e-02" stroke-miterlimit="10" x1="306.6" y1="253.6" x2="306.6" y2="-52.4"></line>
<line display="inline" fill="none" stroke="#EC008C" stroke-width="6.250000e-02" stroke-miterlimit="10" x1="324.6" y1="253.6" x2="324.6" y2="-52.4"></line>
<line display="inline" fill="none" stroke="#EC008C" stroke-width="6.250000e-02" stroke-miterlimit="10" x1="342.6" y1="253.6" x2="342.6" y2="-52.4"></line>
<line display="inline" fill="none" stroke="#EC008C" stroke-width="6.250000e-02" stroke-miterlimit="10" x1="360.6" y1="253.6" x2="360.6" y2="-52.4"></line>
<line display="inline" fill="none" stroke="#EC008C" stroke-width="6.250000e-02" stroke-miterlimit="10" x1="378.6" y1="253.6" x2="378.6" y2="-52.4"></line>
<line display="inline" fill="none" stroke="#EC008C" stroke-width="6.250000e-02" stroke-miterlimit="10" x1="396.6" y1="253.6" x2="396.6" y2="-52.4"></line>
<line display="inline" fill="none" stroke="#EC008C" stroke-width="6.250000e-02" stroke-miterlimit="10" x1="414.6" y1="253.6" x2="414.6" y2="-52.4"></line>
<line display="inline" fill="none" stroke="#EC008C" stroke-width="6.250000e-02" stroke-miterlimit="10" x1="412.3" y1="253.6" x2="412.3" y2="-52.4"></line>
<line display="inline" fill="none" stroke="#EC008C" stroke-width="6.250000e-02" stroke-miterlimit="10" x1="410.1" y1="253.6" x2="410.1" y2="-52.4"></line>
<line display="inline" fill="none" stroke="#EC008C" stroke-width="6.250000e-02" stroke-miterlimit="10" x1="428.1" y1="253.6" x2="428.1" y2="-52.4"></line>
<line display="inline" fill="none" stroke="#EC008C" stroke-width="6.250000e-02" stroke-miterlimit="10" x1="446.1" y1="253.6" x2="446.1" y2="-52.4"></line>
<line display="inline" fill="none" stroke="#EC008C" stroke-width="6.250000e-02" stroke-miterlimit="10" x1="464.1" y1="253.6" x2="464.1" y2="-52.4"></line>
<line display="inline" fill="none" stroke="#EC008C" stroke-width="6.250000e-02" stroke-miterlimit="10" x1="482.1" y1="253.6" x2="482.1" y2="-52.4"></line>
<line display="inline" fill="none" stroke="#EC008C" stroke-width="6.250000e-02" stroke-miterlimit="10" x1="500.1" y1="253.6" x2="500.1" y2="-52.4"></line>
<line display="inline" fill="none" stroke="#EC008C" stroke-width="6.250000e-02" stroke-miterlimit="10" x1="518.1" y1="253.6" x2="518.1" y2="-52.4"></line>
<line display="inline" fill="none" stroke="#EC008C" stroke-width="6.250000e-02" stroke-miterlimit="10" x1="536.1" y1="253.6" x2="536.1" y2="-52.4"></line>
<line display="inline" fill="none" stroke="#EC008C" stroke-width="6.250000e-02" stroke-miterlimit="10" x1="554.1" y1="253.6" x2="554.1" y2="-52.4"></line>
<line display="inline" fill="none" stroke="#EC008C" stroke-width="6.250000e-02" stroke-miterlimit="10" x1="572.1" y1="253.6" x2="572.1" y2="-52.4"></line>
<line display="inline" fill="none" stroke="#EC008C" stroke-width="6.250000e-02" stroke-miterlimit="10" x1="590.1" y1="253.6" x2="590.1" y2="-52.4"></line>
<line display="inline" fill="none" stroke="#EC008C" stroke-width="6.250000e-02" stroke-miterlimit="10" x1="644.1" y1="1.6" x2="-53.4" y2="1.6"></line>
<line display="inline" fill="none" stroke="#EC008C" stroke-width="6.250000e-02" stroke-miterlimit="10" x1="644.1" y1="19.6" x2="-53.4" y2="19.6"></line>
<line display="inline" fill="none" stroke="#EC008C" stroke-width="6.250000e-02" stroke-miterlimit="10" x1="644.1" y1="37.6" x2="-53.4" y2="37.6"></line>
<line display="inline" fill="none" stroke="#EC008C" stroke-width="6.250000e-02" stroke-miterlimit="10" x1="644.1" y1="55.6" x2="-53.4" y2="55.6"></line>
<line display="inline" fill="none" stroke="#EC008C" stroke-width="6.250000e-02" stroke-miterlimit="10" x1="644.1" y1="73.6" x2="-53.4" y2="73.6"></line>
<line display="inline" fill="none" stroke="#EC008C" stroke-width="6.250000e-02" stroke-miterlimit="10" x1="644.1" y1="91.6" x2="-53.4" y2="91.6"></line>
<line display="inline" fill="none" stroke="#EC008C" stroke-width="6.250000e-02" stroke-miterlimit="10" x1="644.1" y1="109.6" x2="-53.4" y2="109.6"></line>
<line display="inline" fill="none" stroke="#EC008C" stroke-width="6.250000e-02" stroke-miterlimit="10" x1="644.1" y1="127.6" x2="-53.4" y2="127.6"></line>
<line display="inline" fill="none" stroke="#EC008C" stroke-width="6.250000e-02" stroke-miterlimit="10" x1="644.1" y1="145.6" x2="-53.4" y2="145.6"></line>
<line display="inline" fill="none" stroke="#EC008C" stroke-width="6.250000e-02" stroke-miterlimit="10" x1="644.1" y1="163.6" x2="-53.4" y2="163.6"></line>
<line display="inline" fill="none" stroke="#EC008C" stroke-width="6.250000e-02" stroke-miterlimit="10" x1="644.1" y1="181.6" x2="-53.4" y2="181.6"></line>
<line display="inline" fill="none" stroke="#EC008C" stroke-width="6.250000e-02" stroke-miterlimit="10" x1="644.1" y1="172.6" x2="-53.4" y2="172.6"></line>
<line display="inline" fill="none" stroke="#EC008C" stroke-width="6.250000e-02" stroke-miterlimit="10" x1="644.1" y1="199.6" x2="-53.4" y2="199.6"></line>
<line display="inline" fill="none" stroke="#EC008C" stroke-width="6.250000e-02" stroke-miterlimit="10" x1="342.6" y1="-52.4" x2="36.6" y2="253.6"></line>
<g display="inline">
<circle fill="none" stroke="#EC008C" stroke-width="6.250000e-02" stroke-miterlimit="10" cx="482.1" cy="73.6" r="18"></circle>
<circle fill="none" stroke="#EC008C" stroke-width="6.250000e-02" stroke-miterlimit="10" cx="482.1" cy="73.6" r="36"></circle>
<circle fill="none" stroke="#EC008C" stroke-width="6.250000e-02" stroke-miterlimit="10" cx="482.1" cy="73.6" r="54"></circle>
<circle fill="none" stroke="#EC008C" stroke-width="6.250000e-02" stroke-miterlimit="10" cx="482.1" cy="73.6" r="72"></circle>
</g>
<circle display="inline" fill="none" stroke="#EC008C" stroke-width="6.250000e-02" stroke-miterlimit="10" cx="342.6" cy="73.6" r="18"></circle>
<circle display="inline" fill="none" stroke="#EC008C" stroke-width="6.250000e-02" stroke-miterlimit="10" cx="342.6" cy="73.6" r="36"></circle>
<circle display="inline" fill="none" stroke="#EC008C" stroke-width="6.250000e-02" stroke-miterlimit="10" cx="342.6" cy="73.6" r="54"></circle>
<path display="inline" fill="none" stroke="#EC008C" stroke-width="6.250000e-02" stroke-miterlimit="10" d="M414.6,73.6
		c0-39.8-32.3-72-72.1-72s-71.9,32.2-71.9,72s32.2,72,71.9,72S414.6,113.4,414.6,73.6z"></path>
<line display="inline" fill="none" stroke="#EC008C" stroke-width="6.250000e-02" stroke-miterlimit="10" x1="270.6" y1="-52.4" x2="-35.4" y2="253.6"></line>
<line display="inline" fill="none" stroke="#EC008C" stroke-width="6.250000e-02" stroke-miterlimit="10" x1="-53.4" y1="-52.4" x2="252.6" y2="253.6"></line>
<line display="inline" fill="none" stroke="#EC008C" stroke-width="6.250000e-02" stroke-miterlimit="10" x1="18.6" y1="-52.4" x2="324.6" y2="253.6"></line>
<circle display="inline" fill="none" stroke="#EC008C" stroke-width="6.250000e-02" stroke-miterlimit="10" cx="587.8" cy="3.9" r="2.2"></circle>
<circle display="inline" fill="none" stroke="#EC008C" stroke-width="6.250000e-02" stroke-miterlimit="10" cx="587.8" cy="53.4" r="2.2"></circle>
<circle display="inline" fill="none" stroke="#EC008C" stroke-width="6.250000e-02" stroke-miterlimit="10" cx="587.8" cy="93.9" r="2.2"></circle>
<circle display="inline" fill="none" stroke="#EC008C" stroke-width="6.250000e-02" stroke-miterlimit="10" cx="587.8" cy="143.4" r="2.2"></circle>
<circle display="inline" fill="none" stroke="#EC008C" stroke-width="6.250000e-02" stroke-miterlimit="10" cx="412.3" cy="143.4" r="2.2"></circle>
<circle display="inline" fill="none" stroke="#EC008C" stroke-width="6.250000e-02" stroke-miterlimit="10" cx="290.9" cy="147.9" r="2.2"></circle>
<circle display="inline" fill="none" stroke="#EC008C" stroke-width="6.250000e-02" stroke-miterlimit="10" cx="286.4" cy="197.4" r="2.2"></circle>
<circle display="inline" fill="none" stroke="#EC008C" stroke-width="6.250000e-02" stroke-miterlimit="10" cx="236.9" cy="197.4" r="2.2"></circle>
<circle display="inline" fill="none" stroke="#EC008C" stroke-width="6.250000e-02" stroke-miterlimit="10" cx="236.9" cy="93.9" r="2.2"></circle>
<circle display="inline" fill="none" stroke="#EC008C" stroke-width="6.250000e-02" stroke-miterlimit="10" cx="144.6" cy="142.4" r="2.2"></circle>
<circle display="inline" fill="none" stroke="#EC008C" stroke-width="6.250000e-02" stroke-miterlimit="10" cx="217.5" cy="3.9" r="2.2"></circle>
<circle display="inline" fill="none" stroke="#EC008C" stroke-width="6.250000e-02" stroke-miterlimit="10" cx="235.5" cy="57.9" r="2.2"></circle>
<circle display="inline" fill="none" stroke="#EC008C" stroke-width="6.250000e-02" stroke-miterlimit="10" cx="144.6" cy="70.5" r="2.2"></circle>
<circle display="inline" fill="none" stroke="#EC008C" stroke-width="6.250000e-02" stroke-miterlimit="10" cx="71.6" cy="3.9" r="2.2"></circle>
<circle display="inline" fill="none" stroke="#EC008C" stroke-width="6.250000e-02" stroke-miterlimit="10" cx="3.3" cy="2.7" r="1.1"></circle>
</g>
</svg>